<svg id="svg" version="1.1" xmlns="http://www.w3.org/2000/svg" xmlns:xlink="http://www.w3.org/1999/xlink" width="400" height="400" viewBox="0, 0, 400,400"><g id="svgg"><path id="path0" d="M131.000 88.573 C 126.369 90.140,113.501 95.173,112.575 95.779 C 111.334 96.593,111.315 96.047,113.019 109.000 C 114.849 122.912,114.821 122.800,116.462 122.800 C 117.570 122.800,117.783 123.795,117.084 125.715 C 116.747 126.642,116.380 128.570,116.268 130.000 C 116.140 131.642,115.462 134.221,114.428 137.000 C 110.877 146.548,111.167 148.016,117.111 150.581 C 122.193 152.774,122.000 152.478,122.000 158.082 C 122.000 166.139,122.639 166.645,132.289 166.238 C 136.267 166.070,138.800 166.109,138.800 166.338 C 138.800 166.544,138.444 167.497,138.009 168.456 C 136.936 170.821,136.946 173.040,138.033 173.697 C 138.492 173.973,139.193 174.830,139.592 175.600 C 141.400 179.088,141.267 179.043,150.422 179.319 C 162.209 179.675,166.800 180.364,166.800 181.775 C 166.800 182.191,165.875 182.356,162.964 182.461 C 157.092 182.674,157.519 181.158,157.851 200.588 L 158.126 216.658 156.647 218.295 C 155.481 219.586,154.582 220.110,152.391 220.775 C 145.488 222.872,143.017 227.467,145.624 233.360 C 146.772 235.956,146.716 236.044,139.494 242.980 C 133.244 248.981,133.004 249.164,132.128 248.589 C 131.284 248.037,131.174 248.068,130.542 249.033 C 129.855 250.080,129.259 250.145,126.999 249.417 C 126.388 249.220,126.029 249.443,125.491 250.353 C 125.103 251.011,124.068 251.865,123.193 252.251 C 120.955 253.239,121.163 254.346,123.700 254.952 C 125.343 255.345,126.114 254.490,106.000 274.600 C 85.973 294.624,86.488 293.986,88.400 296.400 C 89.761 298.119,89.839 298.654,89.013 300.631 L 88.425 302.037 85.713 301.919 L 83.000 301.800 82.093 298.400 C 79.982 290.488,79.630 289.600,78.604 289.600 C 78.044 289.600,77.561 289.893,77.428 290.312 C 77.059 291.474,76.983 299.695,77.328 301.061 C 77.629 302.253,77.568 302.349,76.220 302.794 C 73.771 303.602,72.431 308.334,73.965 310.757 C 74.307 311.297,87.206 310.892,93.883 310.131 L 95.966 309.894 96.083 307.247 C 96.209 304.408,96.360 304.275,98.656 305.000 C 99.323 305.211,99.810 304.938,100.856 303.768 C 105.062 299.067,105.402 298.801,107.247 298.782 L 109.000 298.765 123.161 284.782 C 136.398 271.713,138.308 270.080,139.016 271.226 C 139.340 271.751,141.124 270.078,157.400 253.986 C 170.035 241.494,171.626 240.186,172.779 241.339 C 173.334 241.894,173.369 289.048,172.816 289.390 C 172.604 289.521,170.324 289.972,167.749 290.392 C 161.568 291.400,161.742 291.191,161.388 298.061 L 161.108 303.523 164.454 304.546 C 173.210 307.222,174.556 307.401,185.800 307.389 C 196.086 307.379,196.236 307.367,199.500 306.272 L 202.800 305.165 202.800 301.978 C 202.800 298.684,201.820 291.559,201.211 290.420 C 200.865 289.774,195.476 288.320,191.500 287.800 L 189.600 287.551 189.600 274.509 L 189.600 261.467 190.972 263.033 C 191.959 264.160,192.587 265.499,193.207 267.800 C 193.682 269.560,194.412 272.057,194.830 273.349 C 196.368 278.108,196.595 280.049,195.864 282.194 C 194.386 286.532,194.772 286.948,200.800 287.518 C 209.515 288.341,216.000 284.354,209.749 282.015 C 206.718 280.881,206.808 280.967,207.208 279.574 C 207.451 278.725,207.324 277.308,206.787 274.879 C 205.351 268.386,205.968 266.776,208.581 270.202 C 209.251 271.081,210.070 271.800,210.400 271.800 C 210.730 271.800,211.055 272.184,211.122 272.652 C 211.215 273.304,211.615 273.564,212.822 273.757 C 214.664 274.052,215.357 274.913,223.803 287.400 C 226.630 291.580,230.282 296.980,231.917 299.400 C 235.546 304.768,235.830 305.096,237.649 306.025 C 238.490 306.454,239.947 307.910,241.124 309.498 C 242.239 311.001,243.522 312.567,243.975 312.978 C 245.000 313.905,245.010 314.645,244.027 316.840 C 243.563 317.875,243.382 318.797,243.575 319.142 C 244.248 320.344,259.418 323.866,261.794 323.371 C 264.218 322.867,273.371 319.571,273.675 319.092 C 274.891 317.179,273.121 315.534,269.132 314.870 C 265.220 314.218,264.988 313.943,265.565 310.635 C 266.113 307.488,265.504 300.934,264.578 300.007 C 263.604 299.032,262.622 299.981,262.472 302.040 C 262.402 303.007,262.091 304.078,261.783 304.419 C 261.474 304.761,261.076 305.735,260.900 306.585 C 260.516 308.432,259.078 309.642,257.158 309.735 C 255.100 309.834,255.009 307.929,256.982 306.018 C 259.224 303.845,259.017 303.105,254.476 297.040 C 252.318 294.158,249.663 290.566,248.576 289.057 C 244.514 283.418,241.714 279.549,238.800 275.544 C 237.150 273.277,235.530 271.027,235.200 270.544 C 234.870 270.062,233.070 267.539,231.200 264.939 C 225.724 257.323,225.797 257.488,227.600 256.860 C 229.184 256.308,229.133 256.092,226.900 253.930 C 223.806 250.935,221.808 249.878,219.807 250.178 L 218.118 250.431 213.828 244.384 C 211.469 241.059,209.632 238.092,209.747 237.793 C 209.862 237.493,209.520 236.604,208.986 235.818 L 208.016 234.388 208.876 232.617 L 209.737 230.847 208.837 227.723 C 207.468 222.975,204.022 218.085,202.406 218.598 C 200.288 219.270,200.316 219.500,200.256 201.101 L 200.200 184.084 198.930 182.503 C 197.674 180.939,197.660 180.871,197.562 175.973 L 197.462 171.023 199.069 170.612 C 199.953 170.385,200.960 169.912,201.307 169.559 C 202.250 168.603,208.824 168.269,213.800 168.925 C 218.957 169.605,231.040 168.946,233.080 167.873 C 233.784 167.503,234.695 167.200,235.104 167.200 C 235.513 167.200,236.196 166.935,236.624 166.612 C 237.238 166.147,238.175 166.076,241.105 166.272 L 244.811 166.519 246.305 164.944 C 248.389 162.748,257.567 151.459,258.898 149.454 C 259.870 147.991,259.997 147.425,259.998 144.546 L 260.000 141.291 264.500 140.468 C 266.975 140.016,270.985 139.361,273.410 139.012 C 279.270 138.171,280.176 137.903,280.315 136.971 C 280.378 136.547,280.530 135.362,280.652 134.338 L 280.875 132.476 286.337 131.448 C 289.342 130.883,295.040 129.870,299.000 129.197 C 319.363 125.738,320.779 125.254,321.590 121.474 C 321.952 119.783,322.467 118.981,324.613 116.757 C 327.716 113.543,327.862 112.486,326.214 105.183 C 324.757 98.732,323.295 97.153,319.637 98.082 C 318.079 98.477,317.671 98.400,314.910 97.187 L 311.889 95.859 308.644 96.527 C 306.860 96.894,304.770 97.090,304.000 96.962 C 302.679 96.742,300.606 97.011,285.000 99.428 C 281.480 99.973,276.350 100.686,273.600 101.013 C 270.605 101.369,266.695 102.176,263.850 103.026 C 261.237 103.806,255.657 105.170,251.450 106.056 C 247.242 106.942,241.730 108.108,239.200 108.647 C 235.191 109.501,231.522 110.272,222.921 112.068 C 219.750 112.730,217.858 110.587,219.136 107.781 C 219.523 106.932,219.451 106.455,218.699 104.882 C 217.524 102.423,216.811 102.359,211.390 104.231 L 207.111 105.709 203.790 105.244 C 197.640 104.384,195.206 106.676,195.194 113.337 C 195.185 117.825,195.346 117.711,186.400 119.583 C 184.310 120.020,180.633 120.831,178.229 121.384 C 175.824 121.938,173.814 122.348,173.762 122.295 C 173.232 121.764,163.575 100.573,162.836 98.320 C 161.661 94.735,157.372 92.743,144.000 89.573 C 137.848 88.114,133.374 87.770,131.000 88.573 M125.849 127.700 C 126.819 131.726,125.901 146.271,124.547 148.337 L 123.892 149.337 121.693 147.049 L 119.494 144.761 119.747 142.614 C 119.886 141.433,120.630 138.276,121.400 135.599 C 122.171 132.921,122.906 129.981,123.034 129.065 C 123.380 126.588,123.487 126.400,124.556 126.400 C 125.331 126.400,125.602 126.672,125.849 127.700 M158.000 237.986 C 158.000 239.178,157.702 239.912,156.800 240.939 C 156.140 241.691,155.600 242.664,155.600 243.103 C 155.600 245.758,155.041 246.626,150.065 251.700 C 145.336 256.522,144.978 256.800,143.490 256.800 C 142.370 256.800,141.552 257.106,140.658 257.860 L 139.400 258.920 139.126 256.185 C 138.975 254.681,139.005 253.164,139.192 252.814 C 140.038 251.234,150.841 241.200,151.700 241.196 C 152.261 241.194,153.504 240.295,155.000 238.811 C 157.855 235.978,158.000 235.938,158.000 237.986 M209.981 249.999 C 212.618 253.703,212.745 254.129,211.640 255.565 L 210.898 256.531 210.401 255.565 C 210.128 255.034,208.846 253.039,207.552 251.132 C 205.021 247.400,204.947 247.195,205.693 245.999 C 206.320 244.995,206.617 245.272,209.981 249.999 M201.333 247.500 C 201.637 248.105,202.001 249.203,202.141 249.941 C 202.281 250.678,203.657 253.301,205.198 255.770 C 208.458 260.992,208.415 260.852,206.595 260.294 C 203.704 259.407,200.000 252.153,200.000 247.380 C 200.000 246.078,200.647 246.136,201.333 247.500 " stroke="none" fill="#fbfafa" fill-rule="evenodd"></path><path id="path1" d="M181.200 0.848 C 178.670 1.033,175.160 1.449,173.400 1.774 C 171.640 2.099,168.501 2.572,166.425 2.826 C 164.348 3.080,162.368 3.440,162.025 3.626 C 161.681 3.812,159.606 4.253,157.413 4.606 C 155.220 4.958,153.240 5.393,153.013 5.571 C 152.786 5.749,151.340 6.125,149.800 6.406 C 148.260 6.687,146.910 7.036,146.800 7.181 C 146.690 7.327,145.115 7.780,143.300 8.188 C 141.485 8.597,140.000 9.057,140.000 9.211 C 140.000 9.365,138.920 9.720,137.600 10.000 C 136.280 10.280,135.200 10.631,135.200 10.779 C 135.200 10.927,134.255 11.285,133.100 11.574 C 131.945 11.863,130.274 12.424,129.386 12.821 C 128.498 13.217,127.283 13.664,126.686 13.814 C 126.089 13.964,125.600 14.225,125.600 14.393 C 125.600 14.562,125.085 14.803,124.457 14.929 C 123.356 15.149,118.870 17.040,116.800 18.157 C 116.250 18.454,115.125 18.914,114.300 19.179 C 113.475 19.445,112.800 19.792,112.800 19.951 C 112.800 20.109,112.125 20.481,111.300 20.776 C 110.475 21.071,109.710 21.424,109.600 21.560 C 109.490 21.696,107.960 22.526,106.200 23.404 C 104.440 24.282,102.762 25.225,102.471 25.500 C 102.181 25.775,101.788 26.000,101.598 26.000 C 101.141 26.000,97.038 28.515,96.867 28.900 C 96.793 29.065,96.549 29.200,96.325 29.200 C 96.100 29.200,95.116 29.740,94.138 30.400 C 93.160 31.060,92.198 31.600,92.000 31.600 C 91.802 31.600,91.496 31.827,91.320 32.104 C 91.144 32.381,90.325 32.962,89.500 33.395 C 88.675 33.828,88.000 34.299,88.000 34.442 C 88.000 34.586,87.460 34.927,86.800 35.200 C 86.140 35.473,85.600 35.843,85.600 36.022 C 85.600 36.200,85.272 36.450,84.871 36.578 C 84.469 36.705,83.794 37.125,83.371 37.511 C 82.947 37.896,81.610 38.923,80.400 39.793 C 79.190 40.662,78.110 41.470,78.000 41.587 C 77.890 41.704,76.900 42.516,75.800 43.392 C 74.700 44.267,73.548 45.185,73.239 45.431 C 72.095 46.343,70.152 48.030,68.515 49.531 C 67.589 50.381,65.879 51.894,64.715 52.894 C 62.336 54.938,56.624 60.568,54.200 63.259 C 52.802 64.810,51.131 66.709,47.200 71.213 C 46.650 71.843,45.750 72.935,45.200 73.640 C 44.650 74.346,43.705 75.504,43.100 76.214 C 42.495 76.924,42.000 77.664,42.000 77.857 C 42.000 78.050,41.640 78.432,41.200 78.707 C 40.760 78.982,40.400 79.475,40.400 79.803 C 40.400 80.132,40.254 80.400,40.076 80.400 C 39.898 80.400,38.957 81.615,37.985 83.100 C 37.014 84.585,35.989 85.944,35.709 86.120 C 35.429 86.296,35.200 86.692,35.200 87.000 C 35.200 87.308,34.965 87.704,34.678 87.880 C 34.392 88.056,33.843 88.875,33.460 89.700 C 33.076 90.525,32.613 91.200,32.430 91.200 C 32.247 91.200,31.873 91.740,31.600 92.400 C 31.327 93.060,30.989 93.600,30.849 93.600 C 30.710 93.600,30.339 94.185,30.027 94.900 C 29.496 96.115,29.171 96.654,27.262 99.500 C 26.856 100.105,26.280 101.275,25.982 102.100 C 25.683 102.925,25.311 103.600,25.154 103.600 C 24.998 103.600,24.185 104.995,23.348 106.700 C 22.512 108.405,21.686 109.860,21.514 109.933 C 21.341 110.007,21.199 110.277,21.199 110.533 C 21.198 110.790,20.568 112.250,19.799 113.777 C 19.029 115.304,18.400 116.879,18.400 117.277 C 18.400 117.675,18.234 118.000,18.031 118.000 C 17.828 118.000,17.464 118.600,17.222 119.333 C 16.980 120.066,16.426 121.364,15.991 122.217 C 15.556 123.071,15.200 124.051,15.200 124.396 C 15.200 124.740,14.956 125.377,14.657 125.811 C 14.358 126.245,13.885 127.320,13.605 128.200 C 13.325 129.080,12.955 129.980,12.784 130.200 C 12.612 130.420,12.169 131.770,11.800 133.200 C 11.431 134.630,10.988 135.980,10.817 136.200 C 10.645 136.420,10.283 137.546,10.012 138.701 C 9.741 139.857,9.376 140.891,9.200 141.000 C 9.025 141.108,8.583 142.593,8.220 144.299 C 7.856 146.004,7.395 147.760,7.195 148.200 C 6.995 148.640,6.619 150.170,6.358 151.600 C 6.098 153.030,5.747 154.380,5.577 154.600 C 5.408 154.820,4.966 156.980,4.596 159.400 C 4.225 161.820,3.768 164.160,3.580 164.600 C 3.156 165.592,1.680 176.947,1.136 183.400 C 0.635 189.334,0.953 219.225,1.538 221.200 C 1.766 221.970,2.251 225.300,2.617 228.600 C 2.982 231.900,3.415 234.780,3.578 235.000 C 3.742 235.220,4.105 237.020,4.386 239.000 C 4.666 240.980,5.131 243.320,5.419 244.200 C 5.706 245.080,6.163 246.970,6.435 248.400 C 6.706 249.830,7.047 251.090,7.191 251.200 C 7.335 251.310,7.763 252.829,8.141 254.576 C 8.519 256.323,8.978 257.943,9.162 258.176 C 9.345 258.409,9.722 259.590,10.000 260.800 C 10.278 262.010,10.639 263.180,10.804 263.400 C 10.969 263.620,11.412 264.880,11.790 266.200 C 12.167 267.520,12.607 268.780,12.768 269.000 C 12.928 269.220,13.292 270.208,13.575 271.197 C 13.858 272.185,14.340 273.350,14.645 273.786 C 14.950 274.221,15.200 274.803,15.200 275.079 C 15.200 275.355,15.740 276.759,16.400 278.200 C 17.060 279.641,17.600 280.996,17.600 281.210 C 17.600 281.425,17.780 281.600,18.000 281.600 C 18.220 281.600,18.400 281.884,18.400 282.231 C 18.400 282.879,21.128 288.840,21.589 289.200 C 21.730 289.310,22.091 290.030,22.390 290.800 C 22.967 292.283,24.796 295.663,25.204 296.000 C 25.337 296.110,25.695 296.830,26.001 297.600 C 26.527 298.928,26.932 299.619,28.800 302.384 C 29.240 303.035,29.600 303.721,29.600 303.908 C 29.600 304.096,29.915 304.598,30.300 305.025 C 30.685 305.451,31.270 306.340,31.599 307.000 C 31.929 307.660,32.424 308.344,32.699 308.520 C 32.975 308.696,33.200 309.026,33.200 309.254 C 33.200 309.611,35.406 313.023,36.009 313.600 C 36.124 313.710,36.560 314.335,36.977 314.990 C 37.394 315.644,37.887 316.364,38.073 316.590 C 38.258 316.815,38.941 317.720,39.591 318.600 C 41.929 321.767,42.213 322.128,43.100 323.075 C 43.595 323.604,44.000 324.139,44.000 324.265 C 44.000 324.535,44.949 325.675,50.800 332.436 C 53.669 335.751,64.311 346.386,67.574 349.200 C 68.977 350.410,70.653 351.897,71.299 352.505 C 71.944 353.113,72.861 353.817,73.336 354.069 C 73.811 354.321,74.435 354.858,74.723 355.263 C 75.010 355.669,75.407 356.000,75.604 356.000 C 75.802 356.000,76.396 356.405,76.925 356.900 C 77.453 357.395,78.316 358.123,78.843 358.517 C 79.369 358.911,80.340 359.676,81.000 360.217 C 81.660 360.757,82.307 361.199,82.438 361.200 C 82.569 361.200,83.199 361.650,83.838 362.200 C 84.477 362.749,85.122 363.199,85.271 363.200 C 85.421 363.200,85.783 363.425,86.077 363.700 C 87.086 364.645,90.331 366.800,90.746 366.800 C 90.974 366.800,91.304 367.025,91.480 367.301 C 91.656 367.576,92.340 368.071,93.000 368.401 C 93.660 368.730,94.549 369.315,94.975 369.700 C 95.402 370.085,95.904 370.400,96.092 370.400 C 96.279 370.400,96.965 370.760,97.616 371.200 C 100.381 373.068,101.072 373.473,102.400 373.999 C 103.170 374.305,103.890 374.663,104.000 374.796 C 104.337 375.204,107.717 377.033,109.200 377.610 C 109.970 377.909,110.690 378.270,110.800 378.411 C 111.160 378.872,117.121 381.600,117.769 381.600 C 118.116 381.600,118.400 381.780,118.400 382.000 C 118.400 382.220,118.575 382.400,118.790 382.400 C 119.004 382.400,120.359 382.940,121.800 383.600 C 123.241 384.260,124.645 384.800,124.921 384.800 C 125.197 384.800,125.779 385.050,126.214 385.355 C 126.650 385.660,127.815 386.142,128.803 386.425 C 129.792 386.708,130.780 387.072,131.000 387.232 C 131.220 387.393,132.480 387.833,133.800 388.210 C 135.120 388.588,136.380 389.035,136.600 389.204 C 136.820 389.373,138.035 389.740,139.300 390.019 C 140.565 390.299,141.600 390.654,141.600 390.809 C 141.600 390.964,143.220 391.420,145.200 391.822 C 147.180 392.224,148.800 392.670,148.800 392.812 C 148.800 392.955,150.105 393.302,151.700 393.582 C 153.295 393.863,154.780 394.233,155.000 394.404 C 155.220 394.576,157.380 395.018,159.800 395.387 C 162.220 395.756,164.483 396.206,164.828 396.387 C 165.173 396.568,167.513 396.930,170.028 397.191 C 172.543 397.451,174.889 397.815,175.242 398.000 C 177.551 399.204,215.513 399.540,222.600 398.418 C 223.920 398.209,227.160 397.754,229.800 397.406 C 232.440 397.059,234.960 396.618,235.400 396.426 C 235.840 396.235,238.180 395.775,240.600 395.404 C 243.020 395.034,245.180 394.592,245.400 394.423 C 245.620 394.253,246.970 393.902,248.400 393.642 C 249.830 393.381,251.360 393.005,251.800 392.805 C 252.240 392.605,253.996 392.144,255.701 391.780 C 257.407 391.417,258.892 390.975,259.000 390.800 C 259.109 390.624,260.143 390.259,261.299 389.988 C 262.454 389.717,263.580 389.355,263.800 389.183 C 264.020 389.012,265.370 388.569,266.800 388.200 C 268.230 387.831,269.580 387.388,269.800 387.216 C 270.020 387.045,270.920 386.675,271.800 386.395 C 272.680 386.115,273.755 385.642,274.189 385.343 C 274.623 385.044,275.260 384.800,275.604 384.800 C 275.949 384.800,276.929 384.444,277.783 384.009 C 278.636 383.574,279.934 383.020,280.667 382.778 C 281.400 382.536,282.000 382.172,282.000 381.969 C 282.000 381.766,282.316 381.600,282.701 381.600 C 283.087 381.600,284.701 380.970,286.289 380.200 C 287.876 379.430,289.345 378.800,289.554 378.800 C 289.763 378.800,289.993 378.659,290.067 378.486 C 290.140 378.314,291.595 377.488,293.300 376.652 C 295.005 375.815,296.400 375.002,296.400 374.846 C 296.400 374.689,297.075 374.317,297.900 374.018 C 298.725 373.720,299.895 373.144,300.500 372.738 C 303.346 370.829,303.885 370.504,305.100 369.973 C 305.815 369.661,306.400 369.290,306.400 369.151 C 306.400 369.011,306.940 368.673,307.600 368.400 C 308.260 368.127,308.800 367.753,308.800 367.570 C 308.800 367.387,309.475 366.924,310.300 366.540 C 311.125 366.157,311.944 365.608,312.120 365.322 C 312.296 365.035,312.692 364.800,313.000 364.800 C 313.308 364.800,313.704 364.571,313.880 364.291 C 314.056 364.011,315.415 362.986,316.900 362.015 C 318.385 361.043,319.600 360.102,319.600 359.924 C 319.600 359.746,319.868 359.600,320.197 359.600 C 320.525 359.600,321.018 359.240,321.293 358.800 C 321.568 358.360,321.950 358.000,322.143 358.000 C 322.336 358.000,323.076 357.505,323.786 356.900 C 324.496 356.295,325.654 355.350,326.360 354.800 C 327.065 354.250,328.157 353.350,328.787 352.800 C 333.291 348.869,335.190 347.198,336.741 345.800 C 339.432 343.376,345.062 337.664,347.106 335.285 C 348.106 334.121,349.619 332.411,350.469 331.485 C 351.319 330.558,352.506 329.222,353.107 328.516 C 353.708 327.809,354.480 326.909,354.822 326.516 C 355.164 326.122,356.059 324.990,356.812 324.000 C 357.564 323.010,358.275 322.110,358.392 322.000 C 358.509 321.890,359.234 320.942,360.003 319.892 C 360.771 318.843,361.806 317.493,362.302 316.892 C 362.799 316.292,363.306 315.485,363.429 315.100 C 363.553 314.715,363.800 314.400,363.978 314.400 C 364.157 314.400,364.527 313.860,364.800 313.200 C 365.073 312.540,365.414 312.000,365.558 312.000 C 365.701 312.000,366.172 311.325,366.605 310.500 C 367.038 309.675,367.619 308.856,367.896 308.680 C 368.173 308.504,368.400 308.198,368.400 308.000 C 368.400 307.802,368.940 306.840,369.600 305.862 C 370.260 304.884,370.800 303.900,370.800 303.675 C 370.800 303.451,370.935 303.207,371.100 303.133 C 371.485 302.962,374.000 298.859,374.000 298.402 C 374.000 298.212,374.225 297.819,374.500 297.529 C 374.775 297.238,375.718 295.560,376.596 293.800 C 377.474 292.040,378.304 290.510,378.440 290.400 C 378.576 290.290,378.929 289.525,379.224 288.700 C 379.519 287.875,379.891 287.200,380.049 287.200 C 380.208 287.200,380.555 286.525,380.821 285.700 C 381.086 284.875,381.546 283.750,381.843 283.200 C 382.960 281.130,384.851 276.644,385.071 275.543 C 385.197 274.915,385.438 274.400,385.607 274.400 C 385.775 274.400,386.036 273.911,386.186 273.314 C 386.336 272.717,386.783 271.502,387.179 270.614 C 387.576 269.726,388.137 268.055,388.426 266.900 C 388.715 265.745,389.073 264.800,389.221 264.800 C 389.369 264.800,389.720 263.720,390.000 262.400 C 390.280 261.080,390.642 260.000,390.804 260.000 C 390.966 260.000,391.419 258.470,391.812 256.600 C 392.204 254.730,392.648 253.200,392.798 253.200 C 392.949 253.200,393.302 251.895,393.582 250.300 C 393.863 248.705,394.242 247.214,394.423 246.987 C 394.605 246.760,395.045 244.780,395.401 242.587 C 395.758 240.394,396.216 238.240,396.418 237.800 C 396.621 237.360,397.053 235.110,397.378 232.800 C 397.703 230.490,398.146 227.527,398.362 226.215 C 400.100 215.646,399.837 175.177,398.003 171.000 C 397.810 170.560,397.436 168.310,397.173 166.000 C 396.909 163.690,396.578 161.710,396.437 161.600 C 396.296 161.490,395.852 159.420,395.451 157.000 C 395.050 154.580,394.584 152.510,394.415 152.400 C 394.246 152.290,393.891 150.943,393.626 149.407 C 393.361 147.872,393.000 146.432,392.824 146.207 C 392.647 145.983,392.198 144.405,391.824 142.700 C 391.451 140.995,390.994 139.600,390.808 139.600 C 390.622 139.600,390.347 138.835,390.197 137.900 C 390.047 136.965,389.683 135.700,389.387 135.089 C 389.092 134.478,388.552 132.948,388.187 131.689 C 387.823 130.430,387.379 129.220,387.201 129.000 C 387.024 128.780,386.674 127.835,386.424 126.900 C 386.174 125.965,385.819 125.200,385.635 125.200 C 385.451 125.200,385.197 124.687,385.072 124.060 C 384.947 123.433,384.384 121.903,383.822 120.660 C 381.297 115.076,380.893 114.146,380.628 113.300 C 380.473 112.805,380.207 112.400,380.036 112.400 C 379.866 112.400,379.511 111.680,379.247 110.800 C 378.984 109.920,378.631 109.200,378.464 109.200 C 378.297 109.200,377.922 108.525,377.631 107.700 C 377.340 106.875,376.880 105.930,376.609 105.600 C 376.338 105.270,375.866 104.415,375.561 103.700 C 375.255 102.985,374.896 102.400,374.763 102.400 C 374.629 102.400,374.187 101.590,373.778 100.600 C 373.370 99.610,372.915 98.800,372.767 98.800 C 372.618 98.800,372.273 98.260,372.000 97.600 C 371.727 96.940,371.389 96.400,371.249 96.400 C 371.110 96.400,370.738 95.819,370.424 95.109 C 369.820 93.746,368.156 91.161,367.655 90.809 C 367.492 90.694,367.044 89.925,366.660 89.100 C 366.277 88.275,365.791 87.600,365.581 87.600 C 365.372 87.600,365.200 87.364,365.200 87.075 C 365.200 86.787,364.864 86.191,364.454 85.750 C 364.044 85.310,363.479 84.511,363.199 83.975 C 362.919 83.439,362.446 82.730,362.149 82.400 C 361.851 82.070,360.238 80.000,358.563 77.800 C 356.888 75.600,355.266 73.600,354.959 73.356 C 354.651 73.112,354.400 72.720,354.400 72.485 C 354.400 72.250,353.984 71.730,353.475 71.329 C 352.966 70.928,352.381 70.308,352.175 69.950 C 350.625 67.265,332.735 49.375,330.050 47.825 C 329.692 47.619,329.072 47.034,328.671 46.525 C 328.270 46.016,327.685 45.600,327.371 45.600 C 327.057 45.600,326.800 45.444,326.800 45.253 C 326.800 45.062,324.865 43.446,322.500 41.661 C 320.135 39.876,317.930 38.167,317.600 37.863 C 317.270 37.559,316.561 37.081,316.025 36.801 C 315.489 36.521,314.690 35.956,314.250 35.546 C 313.809 35.136,313.213 34.800,312.925 34.800 C 312.636 34.800,312.400 34.628,312.400 34.419 C 312.400 34.209,311.725 33.723,310.900 33.340 C 310.075 32.956,309.306 32.508,309.191 32.345 C 308.839 31.844,306.254 30.180,304.891 29.576 C 304.181 29.262,303.600 28.890,303.600 28.751 C 303.600 28.611,303.060 28.273,302.400 28.000 C 301.740 27.727,301.200 27.382,301.200 27.233 C 301.200 27.085,300.390 26.630,299.400 26.222 C 298.410 25.813,297.600 25.371,297.600 25.237 C 297.600 25.104,297.015 24.745,296.300 24.439 C 295.585 24.134,294.730 23.669,294.400 23.408 C 294.070 23.146,293.170 22.687,292.400 22.389 C 291.630 22.090,290.910 21.732,290.800 21.594 C 290.592 21.331,286.852 19.511,283.400 17.991 C 282.300 17.507,280.428 16.671,279.240 16.133 C 278.052 15.596,276.567 15.053,275.940 14.928 C 275.313 14.803,274.800 14.549,274.800 14.365 C 274.800 14.181,274.035 13.826,273.100 13.576 C 272.165 13.326,271.220 12.976,271.000 12.799 C 270.780 12.621,269.570 12.177,268.311 11.813 C 267.052 11.448,265.522 10.908,264.911 10.613 C 264.300 10.317,263.035 9.953,262.100 9.803 C 261.165 9.653,260.400 9.378,260.400 9.192 C 260.400 9.006,259.005 8.549,257.300 8.176 C 255.595 7.802,254.020 7.357,253.800 7.186 C 253.580 7.015,252.230 6.666,250.800 6.411 C 249.370 6.156,247.894 5.783,247.521 5.583 C 247.147 5.383,244.987 4.905,242.721 4.522 C 240.454 4.139,238.510 3.710,238.400 3.569 C 238.290 3.429,236.400 3.101,234.200 2.842 C 232.000 2.582,228.760 2.107,227.000 1.786 C 219.797 0.473,193.679 -0.062,181.200 0.848 M144.000 89.573 C 157.372 92.743,161.661 94.735,162.836 98.320 C 163.575 100.573,173.232 121.764,173.762 122.295 C 173.814 122.348,175.824 121.938,178.229 121.384 C 180.633 120.831,184.310 120.020,186.400 119.583 C 195.346 117.711,195.185 117.825,195.194 113.337 C 195.206 106.676,197.640 104.384,203.790 105.244 L 207.111 105.709 211.390 104.231 C 216.811 102.359,217.524 102.423,218.699 104.882 C 219.451 106.455,219.523 106.932,219.136 107.781 C 217.858 110.587,219.750 112.730,222.921 112.068 C 231.522 110.272,235.191 109.501,239.200 108.647 C 241.730 108.108,247.242 106.942,251.450 106.056 C 255.657 105.170,261.237 103.806,263.850 103.026 C 266.695 102.176,270.605 101.369,273.600 101.013 C 276.350 100.686,281.480 99.973,285.000 99.428 C 300.606 97.011,302.679 96.742,304.000 96.962 C 304.770 97.090,306.860 96.894,308.644 96.527 L 311.889 95.859 314.910 97.187 C 317.671 98.400,318.079 98.477,319.637 98.082 C 323.295 97.153,324.757 98.732,326.214 105.183 C 327.862 112.486,327.716 113.543,324.613 116.757 C 322.467 118.981,321.952 119.783,321.590 121.474 C 320.779 125.254,319.363 125.738,299.000 129.197 C 295.040 129.870,289.342 130.883,286.337 131.448 L 280.875 132.476 280.652 134.338 C 280.530 135.362,280.378 136.547,280.315 136.971 C 280.176 137.903,279.270 138.171,273.410 139.012 C 270.985 139.361,266.975 140.016,264.500 140.468 L 260.000 141.291 259.998 144.546 C 259.997 147.425,259.870 147.991,258.898 149.454 C 257.567 151.459,248.389 162.748,246.305 164.944 L 244.811 166.519 241.105 166.272 C 238.175 166.076,237.238 166.147,236.624 166.612 C 236.196 166.935,235.513 167.200,235.104 167.200 C 234.695 167.200,233.784 167.503,233.080 167.873 C 231.040 168.946,218.957 169.605,213.800 168.925 C 208.824 168.269,202.250 168.603,201.307 169.559 C 200.960 169.912,199.953 170.385,199.069 170.612 L 197.462 171.023 197.562 175.973 C 197.660 180.871,197.674 180.939,198.930 182.503 L 200.200 184.084 200.256 201.101 C 200.316 219.500,200.288 219.270,202.406 218.598 C 204.022 218.085,207.468 222.975,208.837 227.723 L 209.737 230.847 208.876 232.617 L 208.016 234.388 208.986 235.818 C 209.520 236.604,209.862 237.493,209.747 237.793 C 209.632 238.092,211.469 241.059,213.828 244.384 L 218.118 250.431 219.807 250.178 C 221.808 249.878,223.806 250.935,226.900 253.930 C 229.133 256.092,229.184 256.308,227.600 256.860 C 225.797 257.488,225.724 257.323,231.200 264.939 C 233.070 267.539,234.870 270.062,235.200 270.544 C 235.530 271.027,237.150 273.277,238.800 275.544 C 241.714 279.549,244.514 283.418,248.576 289.057 C 249.663 290.566,252.318 294.158,254.476 297.040 C 259.017 303.105,259.224 303.845,256.982 306.018 C 255.009 307.929,255.100 309.834,257.158 309.735 C 259.078 309.642,260.516 308.432,260.900 306.585 C 261.076 305.735,261.474 304.761,261.783 304.419 C 262.091 304.078,262.402 303.007,262.472 302.040 C 262.622 299.981,263.604 299.032,264.578 300.007 C 265.504 300.934,266.113 307.488,265.565 310.635 C 264.988 313.943,265.220 314.218,269.132 314.870 C 273.121 315.534,274.891 317.179,273.675 319.092 C 273.371 319.571,264.218 322.867,261.794 323.371 C 259.418 323.866,244.248 320.344,243.575 319.142 C 243.382 318.797,243.563 317.875,244.027 316.840 C 245.010 314.645,245.000 313.905,243.975 312.978 C 243.522 312.567,242.239 311.001,241.124 309.498 C 239.947 307.910,238.490 306.454,237.649 306.025 C 235.830 305.096,235.546 304.768,231.917 299.400 C 214.121 273.072,214.875 274.085,212.822 273.757 C 211.615 273.564,211.215 273.304,211.122 272.652 C 211.055 272.184,210.730 271.800,210.400 271.800 C 210.070 271.800,209.251 271.081,208.581 270.202 C 205.968 266.776,205.351 268.386,206.787 274.879 C 207.324 277.308,207.451 278.725,207.208 279.574 C 206.808 280.967,206.718 280.881,209.749 282.015 C 216.000 284.354,209.515 288.341,200.800 287.518 C 194.772 286.948,194.386 286.532,195.864 282.194 C 196.595 280.049,196.368 278.108,194.830 273.349 C 194.412 272.057,193.682 269.560,193.207 267.800 C 192.587 265.499,191.959 264.160,190.972 263.033 L 189.600 261.467 189.600 274.509 L 189.600 287.551 191.500 287.800 C 195.476 288.320,200.865 289.774,201.211 290.420 C 201.820 291.559,202.800 298.684,202.800 301.978 L 202.800 305.165 199.500 306.272 C 196.236 307.367,196.086 307.379,185.800 307.389 C 174.556 307.401,173.210 307.222,164.454 304.546 L 161.108 303.523 161.388 298.061 C 161.742 291.191,161.568 291.400,167.749 290.392 C 170.324 289.972,172.604 289.521,172.816 289.390 C 173.369 289.048,173.334 241.894,172.779 241.339 C 171.626 240.186,170.035 241.494,157.400 253.986 C 141.124 270.078,139.340 271.751,139.016 271.226 C 138.308 270.080,136.398 271.713,123.161 284.782 L 109.000 298.765 107.247 298.782 C 105.402 298.801,105.062 299.067,100.856 303.768 C 99.810 304.938,99.323 305.211,98.656 305.000 C 96.360 304.275,96.209 304.408,96.083 307.247 L 95.966 309.894 93.883 310.131 C 87.206 310.892,74.307 311.297,73.965 310.757 C 72.431 308.334,73.771 303.602,76.220 302.794 C 77.568 302.349,77.629 302.253,77.328 301.061 C 76.983 299.695,77.059 291.474,77.428 290.312 C 77.561 289.893,78.044 289.600,78.604 289.600 C 79.630 289.600,79.982 290.488,82.093 298.400 L 83.000 301.800 85.713 301.919 L 88.425 302.037 89.013 300.631 C 89.839 298.654,89.761 298.119,88.400 296.400 C 86.488 293.986,85.973 294.624,106.000 274.600 C 126.114 254.490,125.343 255.345,123.700 254.952 C 121.163 254.346,120.955 253.239,123.193 252.251 C 124.068 251.865,125.103 251.011,125.491 250.353 C 126.029 249.443,126.388 249.220,126.999 249.417 C 129.259 250.145,129.855 250.080,130.542 249.033 C 131.174 248.068,131.284 248.037,132.128 248.589 C 133.004 249.164,133.244 248.981,139.494 242.980 C 146.716 236.044,146.772 235.956,145.624 233.360 C 143.017 227.467,145.488 222.872,152.391 220.775 C 154.582 220.110,155.481 219.586,156.647 218.295 L 158.126 216.658 157.851 200.588 C 157.519 181.158,157.092 182.674,162.964 182.461 C 165.875 182.356,166.800 182.191,166.800 181.775 C 166.800 180.364,162.209 179.675,150.422 179.319 C 141.267 179.043,141.400 179.088,139.592 175.600 C 139.193 174.830,138.492 173.973,138.033 173.697 C 136.946 173.040,136.936 170.821,138.009 168.456 C 138.444 167.497,138.800 166.544,138.800 166.338 C 138.800 166.109,136.267 166.070,132.289 166.238 C 122.639 166.645,122.000 166.139,122.000 158.082 C 122.000 152.478,122.193 152.774,117.111 150.581 C 111.167 148.016,110.877 146.548,114.428 137.000 C 115.462 134.221,116.140 131.642,116.268 130.000 C 116.380 128.570,116.747 126.642,117.084 125.715 C 117.783 123.795,117.570 122.800,116.462 122.800 C 114.821 122.800,114.849 122.912,113.019 109.000 C 111.315 96.047,111.334 96.593,112.575 95.779 C 113.501 95.173,126.369 90.140,131.000 88.573 C 133.374 87.770,137.848 88.114,144.000 89.573 M123.421 126.900 C 123.336 127.175,123.162 128.149,123.034 129.065 C 122.906 129.981,122.171 132.921,121.400 135.599 C 120.630 138.276,119.886 141.433,119.747 142.614 L 119.494 144.761 121.693 147.049 L 123.892 149.337 124.547 148.337 C 125.901 146.271,126.819 131.726,125.849 127.700 C 125.524 126.350,123.769 125.771,123.421 126.900 M155.000 238.811 C 153.504 240.295,152.261 241.194,151.700 241.196 C 150.841 241.200,140.038 251.234,139.192 252.814 C 139.005 253.164,138.975 254.681,139.126 256.185 L 139.400 258.920 140.658 257.860 C 141.552 257.106,142.370 256.800,143.490 256.800 C 144.978 256.800,145.336 256.522,150.065 251.700 C 155.041 246.626,155.600 245.758,155.600 243.103 C 155.600 242.664,156.140 241.691,156.800 240.939 C 157.702 239.912,158.000 239.178,158.000 237.986 C 158.000 235.938,157.855 235.978,155.000 238.811 M205.693 245.999 C 204.947 247.195,205.021 247.400,207.552 251.132 C 208.846 253.039,210.128 255.034,210.401 255.565 L 210.898 256.531 211.640 255.565 C 212.745 254.129,212.618 253.703,209.981 249.999 C 206.617 245.272,206.320 244.995,205.693 245.999 M200.000 247.380 C 200.000 252.153,203.704 259.407,206.595 260.294 C 208.415 260.852,208.458 260.992,205.198 255.770 C 203.657 253.301,202.281 250.678,202.141 249.941 C 201.605 247.128,200.000 245.208,200.000 247.380 " stroke="none" fill="#c30404" fill-rule="evenodd"></path></g></svg>